<mxfile host="app.diagrams.net" agent="Mozilla/5.0 (Windows NT 10.0; Win64; x64) AppleWebKit/537.36 (KHTML, like Gecko) Chrome/134.0.0.0 Safari/537.36 Edg/134.0.0.0" version="26.1.0">
  <diagram name="ç¬¬ 1 é¡µ" id="knTu6YSHaxjfZDE-pN9W">
    <mxGraphModel dx="693" dy="466" grid="0" gridSize="10" guides="1" tooltips="1" connect="1" arrows="1" fold="1" page="1" pageScale="1" pageWidth="827" pageHeight="1169" math="0" shadow="0">
      <root>
        <mxCell id="0" />
        <mxCell id="1" parent="0" />
        <mxCell id="w2rTxGRaqVE5rTao4f3b-12" value="" style="verticalLabelPosition=bottom;html=1;verticalAlign=top;align=center;shape=mxgraph.floorplan.table;" vertex="1" parent="1">
          <mxGeometry x="162" y="92" width="40" height="60" as="geometry" />
        </mxCell>
        <mxCell id="w2rTxGRaqVE5rTao4f3b-2" value="" style="endArrow=blockThin;html=1;rounded=0;strokeWidth=1;fillColor=#dae8fc;strokeColor=#6c8ebf;endFill=1;exitX=0.457;exitY=0.614;exitDx=0;exitDy=0;exitPerimeter=0;startFill=0;startArrow=none;" edge="1" parent="1" source="w2rTxGRaqVE5rTao4f3b-9">
          <mxGeometry width="50" height="50" relative="1" as="geometry">
            <mxPoint x="112" y="142.01" as="sourcePoint" />
            <mxPoint x="152" y="72" as="targetPoint" />
          </mxGeometry>
        </mxCell>
        <mxCell id="w2rTxGRaqVE5rTao4f3b-10" value="" style="endArrow=none;html=1;rounded=0;exitX=0.497;exitY=0.651;exitDx=0;exitDy=0;exitPerimeter=0;fillColor=#dae8fc;strokeColor=#6c8ebf;strokeWidth=1;" edge="1" parent="1" source="w2rTxGRaqVE5rTao4f3b-9">
          <mxGeometry width="50" height="50" relative="1" as="geometry">
            <mxPoint x="142" y="172" as="sourcePoint" />
            <mxPoint x="182" y="122" as="targetPoint" />
          </mxGeometry>
        </mxCell>
        <mxCell id="w2rTxGRaqVE5rTao4f3b-15" value="" style="verticalLabelPosition=bottom;html=1;verticalAlign=top;align=center;shape=mxgraph.floorplan.refrigerator;rotation=-90;" vertex="1" parent="1">
          <mxGeometry x="92" y="52" width="20" height="20" as="geometry" />
        </mxCell>
        <mxCell id="w2rTxGRaqVE5rTao4f3b-17" value="" style="endArrow=none;html=1;rounded=0;exitX=0.502;exitY=0.637;exitDx=0;exitDy=0;exitPerimeter=0;fillColor=#dae8fc;strokeColor=#6c8ebf;strokeWidth=1;" edge="1" parent="1" source="w2rTxGRaqVE5rTao4f3b-9">
          <mxGeometry width="50" height="50" relative="1" as="geometry">
            <mxPoint x="122" y="152" as="sourcePoint" />
            <mxPoint x="102" y="62" as="targetPoint" />
          </mxGeometry>
        </mxCell>
        <mxCell id="w2rTxGRaqVE5rTao4f3b-9" value="" style="shape=mxgraph.signs.people.walking;html=1;pointerEvents=1;fillColor=#000000;strokeColor=none;verticalLabelPosition=bottom;verticalAlign=top;align=center;" vertex="1" parent="1">
          <mxGeometry x="102" y="123" width="20" height="29" as="geometry" />
        </mxCell>
        <mxCell id="w2rTxGRaqVE5rTao4f3b-18" value="" style="verticalLabelPosition=bottom;verticalAlign=top;html=1;shape=mxgraph.basic.arc;startAngle=0.3;endAngle=0.5897425957080058;rotation=-105;strokeWidth=0.5;" vertex="1" parent="1">
          <mxGeometry x="110" y="121" width="20" height="25" as="geometry" />
        </mxCell>
        <mxCell id="w2rTxGRaqVE5rTao4f3b-20" value="" style="verticalLabelPosition=bottom;verticalAlign=top;html=1;shape=mxgraph.basic.arc;startAngle=0.3244467637415406;endAngle=0.5897425957080058;rotation=-150;strokeWidth=0.5;" vertex="1" parent="1">
          <mxGeometry x="104" y="112" width="20" height="25" as="geometry" />
        </mxCell>
        <mxCell id="w2rTxGRaqVE5rTao4f3b-21" value="í µí¼ƒ&lt;sub&gt;&lt;font style=&quot;font-size: 8px;&quot;&gt;u1&lt;/font&gt;&lt;/sub&gt;" style="text;whiteSpace=wrap;html=1;" vertex="1" parent="1">
          <mxGeometry x="130" y="106.49665039062495" width="56" height="36" as="geometry" />
        </mxCell>
        <mxCell id="w2rTxGRaqVE5rTao4f3b-22" value="í µí¼ƒ&lt;sub&gt;&lt;font style=&quot;font-size: 8px;&quot;&gt;u2&lt;/font&gt;&lt;/sub&gt;" style="text;whiteSpace=wrap;html=1;" vertex="1" parent="1">
          <mxGeometry x="110" y="86.99665039062495" width="56" height="36" as="geometry" />
        </mxCell>
      </root>
    </mxGraphModel>
  </diagram>
</mxfile>
